# xmcd
#
# Track frame offsets:
#	150
#	32205
#	58173
#	81766
#	102171
#	116387
#	187139
#	255610
#	283982
#	310067
#
# Disc length: 4671 seconds
#
# Revision: 1
# Processed by: cddbd v1.5.2PL0 Copyright (c) Steve Scherf et al.
# Submitted via: EZCDAudioConverter 2.1.7.1
#
DISCID=8d123d0a
DTITLE=Caravan - The World Is Yours 4/4
DYEAR=2010
DGENRE=
TTITLE0=Be Alright - Chance Of A Lifetime [Live]
TTITLE1=The Show Of Our Lives
TTITLE2=Keeping Back My Love
TTITLE3=No Backstage Pass
TTITLE4=Stuck In A Hole
TTITLE5=The Love In Your Eye [BBC Session]
TTITLE6=The Dabsong Conshirtoe [BBC Session]
TTITLE7=Here Am I
TTITLE8=A Very Smelly, Grubby Oik - Bobbing Wide
TTITLE9=All The Way
EXTD=
EXTT0=
EXTT1=
EXTT2=
EXTT3=
EXTT4=
EXTT5=
EXTT6=
EXTT7=
EXTT8=
EXTT9=
PLAYORDER=
